<svg width="17" height="17" viewBox="0 0 17 17" fill="none" xmlns="http://www.w3.org/2000/svg">
<g clip-path="url(#clip0_2034_16364)">
<path fill-rule="evenodd" clip-rule="evenodd" d="M8.4998 0.425049C12.9564 0.425049 16.5748 4.04344 16.5748 8.50005C16.5748 12.9567 12.9564 16.575 8.4998 16.575C4.04319 16.575 0.424805 12.9567 0.424805 8.50005C0.424805 4.04344 4.04319 0.425049 8.4998 0.425049ZM4.97634 8.36927L6.84305 9.614C6.98997 9.71169 7.18377 9.69987 7.3181 9.58525L12.3793 5.24681C12.5361 5.11209 12.7705 5.12195 12.9158 5.26887C13.0612 5.4154 13.0683 5.64977 12.9324 5.80536L7.41775 12.1078C7.33936 12.1968 7.22514 12.2464 7.10618 12.2417C6.98762 12.2374 6.87732 12.1795 6.80603 12.0846L4.44261 8.93334C4.32759 8.77972 4.3398 8.56583 4.47175 8.42638C4.60332 8.28695 4.81642 8.26292 4.97634 8.36927Z" fill="#282928"/>
</g>
<defs>
<clipPath id="clip0_2034_16364">
<rect width="17" height="17" fill="white"/>
</clipPath>
</defs>
</svg>
